<svg width="22" height="22" viewBox="0 0 22 22" fill="none" xmlns="http://www.w3.org/2000/svg">
<path d="M12.5443 9.45645C11.7252 8.63768 10.6144 8.17773 9.4563 8.17773C8.29815 8.17773 7.18741 8.63768 6.3683 9.45645L3.2793 12.5444C2.46018 13.3636 2 14.4745 2 15.6329C2 16.7914 2.46018 17.9023 3.2793 18.7215C4.09842 19.5406 5.20939 20.0007 6.3678 20.0007C7.52621 20.0007 8.63718 19.5406 9.4563 18.7215L11.0003 17.1775" stroke="#5668E8" stroke-width="3" stroke-linecap="round" stroke-linejoin="round"/>
<path d="M9.4563 12.5443C10.2754 13.3631 11.3861 13.823 12.5443 13.823C13.7024 13.823 14.8132 13.3631 15.6323 12.5443L18.7213 9.4563C19.5404 8.63718 20.0006 7.52621 20.0006 6.3678C20.0006 5.20939 19.5404 4.09842 18.7213 3.2793C17.9022 2.46018 16.7912 2 15.6328 2C14.4744 2 13.3634 2.46018 12.5443 3.2793L11.0003 4.8233" stroke="#5668E8" stroke-width="3" stroke-linecap="round" stroke-linejoin="round"/>
</svg>
