<svg width="23" height="23" viewBox="0 0 23 23" fill="none" xmlns="http://www.w3.org/2000/svg">
<path d="M13.8365 23C14.0149 23 14.1887 22.9448 14.3329 22.8423C14.4771 22.7399 14.5843 22.5955 14.6389 22.4299L15.566 19.6223C15.9554 19.4366 16.328 19.228 16.6837 18.9931L19.6439 19.6141C19.8184 19.6504 20.0003 19.6318 20.1632 19.5609C20.3262 19.4901 20.4619 19.3706 20.5508 19.2198L22.8872 15.2786C22.9765 15.1278 23.0143 14.9534 22.9952 14.7803C22.9761 14.6073 22.9011 14.4447 22.781 14.3159L20.7497 12.1309C20.7793 11.7119 20.7793 11.2914 20.7497 10.8724L22.781 8.68414C22.9011 8.55533 22.9761 8.39268 22.9952 8.21966C23.0143 8.04663 22.9765 7.87217 22.8872 7.72143L20.5508 3.77857C20.4617 3.62804 20.3259 3.50894 20.1629 3.43838C19.9999 3.36783 19.8182 3.34946 19.6439 3.38593L16.6837 4.00693C16.3297 3.77364 15.9554 3.56336 15.5677 3.37771L14.6389 0.57007C14.5843 0.404505 14.4771 0.260098 14.3329 0.157652C14.1887 0.0552063 14.0149 3.8147e-06 13.8365 0H9.16355C8.9851 3.8147e-06 8.81126 0.0552063 8.66705 0.157652C8.52285 0.260098 8.41574 0.404505 8.36113 0.57007L7.43566 3.37607C7.04729 3.56115 6.6727 3.7725 6.31463 4.00857L3.35614 3.38593C3.1816 3.34961 2.99975 3.36822 2.83676 3.43908C2.67377 3.50994 2.53807 3.62938 2.4492 3.78021L0.112753 7.72143C0.0235333 7.87217 -0.0142572 8.04663 0.00483009 8.21966C0.0239173 8.39268 0.098896 8.55533 0.218955 8.68414L2.25028 10.8724C2.22086 11.2903 2.22086 11.7097 2.25028 12.1276L0.218955 14.3159C0.098896 14.4447 0.0239173 14.6073 0.00483009 14.7803C-0.0142572 14.9534 0.0235333 15.1278 0.112753 15.2786L2.4492 19.2214C2.53832 19.372 2.67412 19.4911 2.83709 19.5616C3.00006 19.6322 3.18178 19.6505 3.35614 19.6141L6.31463 18.9914C6.67201 19.2264 7.04625 19.4383 7.43566 19.6239L8.36282 22.4299C8.41725 22.595 8.52385 22.739 8.66738 22.8414C8.8109 22.9438 8.98399 22.9993 9.16186 23H13.8348H13.8365ZM13.2195 21.3571H9.78053L8.82303 18.4542L8.17738 18.147C7.85999 17.9956 7.55359 17.8233 7.26034 17.6311L6.66358 17.2369L3.60226 17.8809L1.88279 14.9763L3.98155 12.7124L3.93098 12.0159C3.90676 11.6724 3.90676 11.3276 3.93098 10.9841L3.98155 10.2876L1.87942 8.02371L3.60057 5.11914L6.6619 5.7615L7.25865 5.36886C7.5519 5.17672 7.8583 5.00437 8.1757 4.853L8.82134 4.54579L9.78053 1.64286H13.2228L14.1837 4.54743L14.8277 4.853C15.1447 5.00401 15.4506 5.17638 15.743 5.36886L16.3381 5.7615L19.4011 5.11914L21.1206 8.02371L19.0201 10.2876L19.0707 10.9841C19.095 11.3282 19.095 11.6735 19.0707 12.0175L19.0201 12.7141L21.1223 14.9763L19.4011 17.8809L16.3381 17.2401L15.743 17.6311C15.4506 17.8237 15.1448 17.996 14.8277 18.147L14.1837 18.4526L13.2212 21.3571H13.2195ZM11.5 16.4286C12.8413 16.4286 14.1276 15.9093 15.076 14.985C16.0244 14.0607 16.5573 12.8071 16.5573 11.5C16.5573 10.1929 16.0244 8.93926 15.076 8.01497C14.1276 7.09069 12.8413 6.57143 11.5 6.57143C10.1587 6.57143 8.8724 7.09069 7.92398 8.01497C6.97556 8.93926 6.44275 10.1929 6.44275 11.5C6.44275 12.8071 6.97556 14.0607 7.92398 14.985C8.8724 15.9093 10.1587 16.4286 11.5 16.4286ZM11.5 14.7857C10.6058 14.7857 9.74827 14.4395 9.11599 13.8234C8.48371 13.2072 8.1285 12.3714 8.1285 11.5C8.1285 10.6286 8.48371 9.79284 9.11599 9.17665C9.74827 8.56046 10.6058 8.21428 11.5 8.21428C12.3942 8.21428 13.2517 8.56046 13.884 9.17665C14.5163 9.79284 14.8715 10.6286 14.8715 11.5C14.8715 12.3714 14.5163 13.2072 13.884 13.8234C13.2517 14.4395 12.3942 14.7857 11.5 14.7857Z" fill="#394DDB"/>
</svg>
