<svg width="10" height="15" viewBox="0 0 10 15" fill="none" xmlns="http://www.w3.org/2000/svg">
<path d="M10 6.34615V7.5C10 8.82812 9.57321 9.98347 8.71962 10.966C7.86603 11.9486 6.81134 12.512 5.55556 12.6562V13.8462H7.77778C7.92824 13.8462 8.05845 13.9032 8.1684 14.0174C8.27836 14.1316 8.33333 14.2668 8.33333 14.4231C8.33333 14.5793 8.27836 14.7145 8.1684 14.8287C8.05845 14.9429 7.92824 15 7.77778 15H2.22222C2.07176 15 1.94155 14.9429 1.8316 14.8287C1.72164 14.7145 1.66667 14.5793 1.66667 14.4231C1.66667 14.2668 1.72164 14.1316 1.8316 14.0174C1.94155 13.9032 2.07176 13.8462 2.22222 13.8462H4.44444V12.6562C3.18866 12.512 2.13397 11.9486 1.28038 10.966C0.426794 9.98347 0 8.82812 0 7.5V6.34615C0 6.1899 0.0549768 6.05469 0.164931 5.94051C0.274884 5.82632 0.405093 5.76923 0.555556 5.76923C0.706019 5.76923 0.836227 5.82632 0.946181 5.94051C1.05613 6.05469 1.11111 6.1899 1.11111 6.34615V7.5C1.11111 8.61178 1.49161 9.5628 2.2526 10.3531C3.0136 11.1433 3.9294 11.5385 5 11.5385C6.0706 11.5385 6.9864 11.1433 7.7474 10.3531C8.50839 9.5628 8.88889 8.61178 8.88889 7.5V6.34615C8.88889 6.1899 8.94387 6.05469 9.05382 5.94051C9.16377 5.82632 9.29398 5.76923 9.44444 5.76923C9.59491 5.76923 9.72512 5.82632 9.83507 5.94051C9.94502 6.05469 10 6.1899 10 6.34615ZM7.77778 2.88462V7.5C7.77778 8.29327 7.50579 8.97236 6.96181 9.53726C6.41782 10.1022 5.76389 10.3846 5 10.3846C4.23611 10.3846 3.58218 10.1022 3.03819 9.53726C2.49421 8.97236 2.22222 8.29327 2.22222 7.5V2.88462C2.22222 2.09135 2.49421 1.41226 3.03819 0.847356C3.58218 0.282452 4.23611 0 5 0C5.76389 0 6.41782 0.282452 6.96181 0.847356C7.50579 1.41226 7.77778 2.09135 7.77778 2.88462Z" fill="#56E8C5"/>
</svg>
