<svg width="16" height="15" viewBox="0 0 16 15" fill="none" xmlns="http://www.w3.org/2000/svg">
<path d="M9 8C9.53043 8 10.0391 8.21071 10.4142 8.58579C10.7893 8.96086 11 9.46957 11 10V11.5C11 13.554 8.912 15 5.5 15C2.088 15 0 13.554 0 11.5V10C0 9.46957 0.210714 8.96086 0.585786 8.58579C0.960859 8.21071 1.46957 8 2 8H9ZM14 8C14.5304 8 15.0391 8.21071 15.4142 8.58579C15.7893 8.96086 16 9.46957 16 10V10.5C16 12.589 14.432 14 11.5 14C11.359 14 11.22 13.997 11.086 13.99C11.6319 13.3624 11.9513 12.5697 11.993 11.739L12 11.5V10C12 9.308 11.766 8.67 11.372 8.163L11.235 8H14ZM5.5 0C5.95963 -6.84897e-09 6.41475 0.0905301 6.83939 0.266422C7.26403 0.442313 7.64987 0.700121 7.97487 1.02513C8.29988 1.35013 8.55769 1.73597 8.73358 2.16061C8.90947 2.58525 9 3.04037 9 3.5C9 3.95963 8.90947 4.41475 8.73358 4.83939C8.55769 5.26403 8.29988 5.64987 7.97487 5.97487C7.64987 6.29988 7.26403 6.55769 6.83939 6.73358C6.41475 6.90947 5.95963 7 5.5 7C4.57174 7 3.6815 6.63125 3.02513 5.97487C2.36875 5.3185 2 4.42826 2 3.5C2 2.57174 2.36875 1.6815 3.02513 1.02513C3.6815 0.368749 4.57174 1.38321e-08 5.5 0ZM12.5 2C13.163 2 13.7989 2.26339 14.2678 2.73223C14.7366 3.20107 15 3.83696 15 4.5C15 5.16304 14.7366 5.79893 14.2678 6.26777C13.7989 6.73661 13.163 7 12.5 7C11.837 7 11.2011 6.73661 10.7322 6.26777C10.2634 5.79893 10 5.16304 10 4.5C10 3.83696 10.2634 3.20107 10.7322 2.73223C11.2011 2.26339 11.837 2 12.5 2Z" fill="black"/>
</svg>
