<svg width="16" height="24" viewBox="0 0 16 24" fill="none" xmlns="http://www.w3.org/2000/svg">
<path d="M16 10.1538V12C16 14.125 15.3171 15.9736 13.9514 17.5457C12.5856 19.1178 10.8981 20.0192 8.88889 20.25V22.1538H12.4444C12.6852 22.1538 12.8935 22.2452 13.0694 22.4279C13.2454 22.6106 13.3333 22.8269 13.3333 23.0769C13.3333 23.3269 13.2454 23.5433 13.0694 23.726C12.8935 23.9087 12.6852 24 12.4444 24H3.55556C3.31481 24 3.10648 23.9087 2.93056 23.726C2.75463 23.5433 2.66667 23.3269 2.66667 23.0769C2.66667 22.8269 2.75463 22.6106 2.93056 22.4279C3.10648 22.2452 3.31481 22.1538 3.55556 22.1538H7.11111V20.25C5.10185 20.0192 3.41435 19.1178 2.04861 17.5457C0.68287 15.9736 0 14.125 0 12V10.1538C0 9.90385 0.087963 9.6875 0.263889 9.50481C0.439815 9.32212 0.648148 9.23077 0.888889 9.23077C1.12963 9.23077 1.33796 9.32212 1.51389 9.50481C1.68981 9.6875 1.77778 9.90385 1.77778 10.1538V12C1.77778 13.7788 2.38657 15.3005 3.60417 16.5649C4.82176 17.8293 6.28704 18.4615 8 18.4615C9.71296 18.4615 11.1782 17.8293 12.3958 16.5649C13.6134 15.3005 14.2222 13.7788 14.2222 12V10.1538C14.2222 9.90385 14.3102 9.6875 14.4861 9.50481C14.662 9.32212 14.8704 9.23077 15.1111 9.23077C15.3519 9.23077 15.5602 9.32212 15.7361 9.50481C15.912 9.6875 16 9.90385 16 10.1538ZM12.4444 4.61539V12C12.4444 13.2692 12.0093 14.3558 11.1389 15.2596C10.2685 16.1635 9.22222 16.6154 8 16.6154C6.77778 16.6154 5.73148 16.1635 4.86111 15.2596C3.99074 14.3558 3.55556 13.2692 3.55556 12V4.61539C3.55556 3.34615 3.99074 2.25962 4.86111 1.35577C5.73148 0.451923 6.77778 0 8 0C9.22222 0 10.2685 0.451923 11.1389 1.35577C12.0093 2.25962 12.4444 3.34615 12.4444 4.61539Z" fill="#5668E8"/>
</svg>
